{"title":"Kung.Fu.Panda.2.2011.R6.Line.XviD.Feel-Free ","uid":6681975,"size":1009064426,"categoryP":"video","categoryS":"movies","magnet":"?xt=urn:btih:936b5158a4af0385fd0b2999556d9a0340c1ba08&amp;dn=Kung.Fu.Panda.2.2011.R6.Line.XviD.Feel-Free+&amp;tr=udp%3A%2F%2Ftracker.openbittorrent.com%3A80&amp;tr=udp%3A%2F%2Fopen.demonii.com%3A1337&amp;tr=udp%3A%2F%2Ftracker.coppersurfer.tk%3A6969&amp;tr=udp%3A%2F%2Fexodus.desync.com%3A6969","seeders":0,"leechers":0,"uploader":"HeroMaster","files":-1,"time":1316235681,"description":"Kung.Fu.Panda.2.2011.R6.Line.XviD.Feel-Free \n\nGenre:Animation | Action | Adventure\nLanguage:English\nIMDb:http://www.imdb.com/title/tt1302011/\nSource:R6 LiNE 720p N0NBiDA Thanks!\n\nFormat : AVI\nFormat/Info : Audio Video Interleave\nFile size : 961 MiB\nDuration : 1h 25mn\nOverall bit rate : 1 575 Kbps\n\nVideo\nID : 0\nFormat : MPEG-4 Visual\nFormat profile : Advanced Simple@L5\nFormat settings, BVOP : Yes\nFormat settings, QPel : No\nFormat settings, GMC : No warppoints\nFormat settings, Matrix : Default (H.263)\nMuxing mode : Packed bitstream\nCodec ID : XVID\nCodec ID/Hint : XviD\nDuration : 1h 25mn\nBit rate : 1 246 Kbps\nWidth : 720 pixels\nHeight : 304 pixels\nDisplay aspect ratio : 2.35:1\nFrame rate : 29.970 fps\nColor space : YUV\nChroma subsampling : 4:2:0\nBit depth : 8 bits\nScan type : Progressive\nBits/(Pixel*Frame) : 0.190\nStream size : 761 MiB (79%)\nWriting library : XviD 1.2.1 (UTC 2008-12-04)\n\nAudio\nID : 1\nFormat : MPEG Audio\nFormat version : Version 1\nFormat profile : Layer 3\nMode : Joint stereo\nCodec ID : 55\nCodec ID/Hint : MP3\nDuration : 1h 23mn\nBit rate mode : Constant\nBit rate : 320 Kbps\nChannel(s) : 2 channels\nSampling rate : 48.0 KHz\nStream size : 192 MiB (20%)\nAlignment : Aligned on interleaves\nInterleave, duration : 24 ms (0.73 video frame)\nInterleave, preload duration : 504 ms\n\n\nPlot:\n\nPo joins forces with a group of new kung-fu masters to take on an old enemy \nwith a deadly new weapon.\n\n\nScreens:\n\n &lt;a href=&quot;\nhttp://www.pix2links.com/images/23161480742191412885.png&quot; rel=&quot;nofollow&quot; target=&quot;_NEW&quot;&gt;\nhttp://www.pix2links.com/images/23161480742191412885.png&lt;/a&gt;\n    \t &lt;a href=&quot;\nhttp://www.pix2links.com/images/72883587617684910591.png&quot; rel=&quot;nofollow&quot; target=&quot;_NEW&quot;&gt;\nhttp://www.pix2links.com/images/72883587617684910591.png&lt;/a&gt;\n    \t &lt;a href=&quot;\nhttp://www.pix2links.com/images/33891040287733330795.png&quot; rel=&quot;nofollow&quot; target=&quot;_NEW&quot;&gt;\nhttp://www.pix2links.com/images/33891040287733330795.png&lt;/a&gt;\n\n\nENJOY!","torrent":{"xt":"urn:btih:936b5158a4af0385fd0b2999556d9a0340c1ba08","amp;dn":"Kung.Fu.Panda.2.2011.R6.Line.XviD.Feel-Free+","amp;tr":["udp%3A%2F%2Ftracker.openbittorrent.com%3A80","udp%3A%2F%2Fopen.demonii.com%3A1337","udp%3A%2F%2Ftracker.coppersurfer.tk%3A6969","udp%3A%2F%2Fexodus.desync.com%3A6969"],"infoHash":"936b5158a4af0385fd0b2999556d9a0340c1ba08","infoHashBuffer":{"type":"Buffer","data":[147,107,81,88,164,175,3,133,253,11,41,153,85,109,154,3,64,193,186,8]},"announce":[],"urlList":[]}}